# xmcd
#
# Track frame offsets: 
#        150
#        21547
#        45405
#        64875
#        88545
#        107995
#        134912
#        156765
#        177372
#        201130
#        228450
#        253905
#
# Disc length: 3672 seconds
#
# Revision: 3
# Processed by: cddbd v1.4PL0 Copyright (c) Steve Scherf et al.
# Submitted via: ExactAudioCopy v0.90b4
#
DISCID=b00e560c
DTITLE=Creed - Human Clay
DYEAR=1999
DGENRE=Rock
TTITLE0=Are You Ready?
TTITLE1=What If
TTITLE2=Beautiful
TTITLE3=Say I
TTITLE4=Wrong Way
TTITLE5=Faceless Man
TTITLE6=Never Die
TTITLE7=With Arms Wide Open
TTITLE8=Higher
TTITLE9=Wash Away Those Years
TTITLE10=Inside Us All
TTITLE11=Young Grow Old
EXTD=
EXTT0=
EXTT1=
EXTT2=
EXTT3=
EXTT4=
EXTT5=
EXTT6=
EXTT7=
EXTT8=
EXTT9=
EXTT10=
EXTT11=
PLAYORDER=
